<svg width="20" height="12" viewBox="0 0 20 12" fill="none" xmlns="http://www.w3.org/2000/svg">
<g id="Group">
<path id="Vector" d="M18.218 3.44338C18.218 3.06728 18.172 3.00098 18.0742 3.00098C17.9765 3.00098 17.9299 3.06728 17.9299 3.44338C17.9299 3.81973 17.9762 3.88603 18.0742 3.88603C18.1717 3.88603 18.218 3.81973 18.218 3.44338Z" fill="white"/>
<path id="Vector_2" d="M17.8885 4.58742C17.8885 4.21132 17.8419 4.14453 17.7442 4.14453C17.6469 4.14453 17.6001 4.21083 17.6001 4.58742C17.6001 4.96402 17.6462 5.03056 17.7442 5.03056C17.8419 5.03056 17.8885 4.96402 17.8885 4.58742Z" fill="white"/>
<path id="Vector_3" d="M17.5892 3.44338C17.5892 3.06728 17.5431 3.00098 17.4454 3.00098C17.3476 3.00098 17.3013 3.06728 17.3013 3.44338C17.3013 3.81973 17.3474 3.88603 17.4454 3.88603C17.5429 3.88603 17.5892 3.81973 17.5892 3.44338Z" fill="white"/>
<path id="Vector_4" d="M19.7102 7.07363V0H17.3868V1.74549C17.1559 1.77816 16.7311 1.87249 16.7311 2.12184C16.7311 2.39948 17.2724 2.52623 17.7755 2.52623C18.2784 2.52623 18.82 2.39996 18.82 2.12184C18.82 1.85421 18.3491 1.76475 18.0995 1.73623V0.807787H18.9977V6.11886C18.8034 5.96091 18.5536 5.86194 18.2774 5.86194C17.9386 5.86194 17.6273 6.00478 17.418 6.25097C17.2086 6.00502 16.8971 5.86194 16.5587 5.86194C16.2363 5.86194 15.5092 5.99357 15.2998 6.21953C15.0904 5.99357 14.7872 5.86194 14.4647 5.86194C14.1264 5.86194 13.3912 6.00478 13.1816 6.25097C12.8966 5.91606 11.5619 5.772 11.1092 5.92191C10.6566 5.77176 9.3218 5.9163 9.03686 6.25097C8.82747 6.00527 8.51621 5.86194 8.17764 5.86194C7.85516 5.86194 7.55218 5.99332 7.34279 6.21928C7.13341 5.99332 6.83019 5.86194 6.50771 5.86194C6.16914 5.86194 5.85763 6.00502 5.64824 6.25097C5.43886 6.00527 5.12759 5.86194 4.78878 5.86194C4.28593 5.86194 3.86473 6.18077 3.72944 6.61318C3.22781 6.47205 2.53044 6.28119 1.5569 6.02136C1.17275 5.92264 0.775925 6.15298 0.676475 6.51666C0.623825 6.70946 0.728881 6.98271 0.778363 7.09483C0.5936 7.47801 0.5 7.88458 0.5 8.30432V9.99448C0.5 10.7423 0.798594 11.4224 1.28268 11.936H19.2168C19.7014 11.4224 20 10.7421 20 9.99399V8.30432C20 7.87776 19.9018 7.46411 19.7102 7.07363ZM18.9975 6.99124H4.96672C4.87507 6.95273 4.62644 6.86863 3.932 6.67095C4.04218 6.32726 4.38221 6.07401 4.78829 6.07401C5.10639 6.07401 5.39426 6.22806 5.5583 6.48594L5.64776 6.6261L5.73721 6.48594C5.9015 6.22781 6.18937 6.07401 6.50722 6.07401C6.80898 6.07401 7.08881 6.21392 7.25578 6.44816L7.34206 6.56931L7.42835 6.44816C7.59532 6.21392 7.87514 6.07401 8.17691 6.07401C8.49476 6.07401 8.78263 6.22806 8.94691 6.48594L9.03637 6.6261L9.12582 6.48594C9.34666 6.1386 10.6505 5.97919 11.0722 6.13397L11.1087 6.14738L11.1453 6.13397C11.5667 5.97967 12.8706 6.13909 13.0914 6.48594L13.1809 6.62634L13.2703 6.48594C13.4344 6.22781 14.1461 6.07401 14.4637 6.07401C14.7655 6.07401 15.0455 6.21392 15.2125 6.44841L15.2988 6.56955L15.3853 6.44841C15.5523 6.21392 16.2558 6.07401 16.5578 6.07401C16.8759 6.07401 17.1635 6.22806 17.3278 6.48594L17.4167 6.6261L17.5064 6.48594C17.6707 6.22781 17.9584 6.07401 18.2764 6.07401C18.5724 6.07401 18.8332 6.20953 18.9967 6.41477V6.99124H18.9975Z" fill="white"/>
</g>
</svg>
