<svg width="21" height="12" viewBox="0 0 21 12" fill="none" xmlns="http://www.w3.org/2000/svg">
<g id="Group 16442">
<path id="Vector" d="M3.88334 2.9105L4.96143 7.61484H10.431H15.901L16.9784 2.91137C17.025 2.38605 17.3665 1.94593 17.836 1.7568C17.1464 0.699844 15.955 0 14.5989 0C14.5989 0 11.4624 0.256885 10.4168 0.256885C9.3786 0.256885 6.26351 0 6.26351 0C4.90718 0 3.71622 0.700063 3.02618 1.75702C3.49529 1.94614 3.8365 2.38562 3.88334 2.9105Z" fill="white"/>
<path id="Vector_2" d="M20.1667 3.85846C20.1667 3.15949 19.5198 2.59277 18.7221 2.59277C17.9678 2.59277 17.3492 3.09914 17.2836 3.74538L16.1537 8.0669H4.68012L3.54952 3.74451C3.48371 3.09914 2.86514 2.59277 2.11126 2.59277C1.31359 2.59277 0.666687 3.15949 0.666687 3.85846C0.666687 3.92906 0.674967 3.99791 0.687604 4.06524L2.60564 11.4827L2.66883 11.4696V11.4827H18.265V11.34L20.1667 4.06959C20.1667 4.06959 20.1667 3.92906 20.1667 3.85846Z" fill="white"/>
</g>
</svg>
