<svg width="25" height="24" viewBox="0 0 25 24" fill="none" xmlns="http://www.w3.org/2000/svg">
<path fill-rule="evenodd" clip-rule="evenodd" d="M18.9153 21.0003H15.7153C15.5493 21.0003 15.4153 20.8662 15.4153 20.7002V16.5003C15.4153 15.1193 14.2963 14.0003 12.9153 14.0003C11.5343 14.0003 10.4153 15.1193 10.4153 16.5003V20.7002C10.4153 20.8662 10.2812 21.0003 10.1152 21.0003H6.91528C4.91528 21.0003 3.91528 20.0003 3.91528 18.0003V11.6513C3.91528 9.65327 4.43834 9.34632 5.34534 8.58633L11.3093 3.58523C12.2383 2.80623 13.5933 2.80623 14.5223 3.58523L20.4863 8.58633C21.3923 9.34632 21.9163 9.65327 21.9163 11.6513V18.0003C21.9153 20.0003 20.9153 21.0003 18.9153 21.0003Z" fill="#0D0E0F"/>
</svg>
