<svg width="41" height="40" viewBox="0 0 41 40" fill="none" xmlns="http://www.w3.org/2000/svg">
<circle cx="20.3334" cy="20" r="20" fill="#F9FAFB"/>
<path d="M20.3333 29.7501C20.2273 29.7501 20.1213 29.728 20.0223 29.683C19.6953 29.534 11.9993 25.9651 10.7653 19.6091C10.2883 17.1501 10.7674 14.751 12.0464 13.193C13.0814 11.931 14.5693 11.26 16.3503 11.251C16.3593 11.251 16.3683 11.251 16.3763 11.251C18.4083 11.251 19.6474 12.4081 20.3324 13.3931C21.0204 12.4041 22.2693 11.242 24.3143 11.251C26.0963 11.26 27.5853 11.931 28.6213 13.193C29.8983 14.75 30.3763 17.149 29.8983 19.61C28.6663 25.966 20.9693 29.5361 20.6423 29.6841C20.5453 29.7281 20.4393 29.7501 20.3333 29.7501ZM16.3753 12.7501C16.3693 12.7501 16.3644 12.7501 16.3584 12.7501C15.0204 12.7561 13.9604 13.225 13.2064 14.144C12.2074 15.361 11.8464 17.297 12.2384 19.323C13.1934 24.247 18.9263 27.447 20.3333 28.165C21.7403 27.447 27.4733 24.247 28.4273 19.323C28.8213 17.296 28.4603 15.36 27.4633 14.144C26.7093 13.226 25.6493 12.758 24.3083 12.751C24.3023 12.751 24.2964 12.751 24.2914 12.751C21.9194 12.751 21.0784 15.1281 21.0444 15.2291C20.9404 15.5321 20.6543 15.738 20.3343 15.738C20.3323 15.738 20.3313 15.738 20.3303 15.738C20.0093 15.737 19.7233 15.532 19.6213 15.227C19.5883 15.127 18.7463 12.7501 16.3753 12.7501Z" fill="#0D0E0F"/>
</svg>
